<svg width="2670" height="1422" viewBox="0 0 2670 1422" fill="none" xmlns="http://www.w3.org/2000/svg">
<g clip-path="url(#clip0_11891_190633)">
<path d="M353.57 717.079V845.26H443.525V722.625C443.525 710.694 448.264 699.251 456.699 690.814C465.134 682.378 476.574 677.638 488.503 677.638H580.738C623.765 677.625 665.026 660.521 695.448 630.086C725.87 599.651 742.962 558.378 742.965 515.341V515.341C742.965 472.298 725.871 431.018 695.444 400.58C665.016 370.142 623.747 353.038 580.713 353.032H353.57V513.258H443.525V437.718H574.65C595.01 437.718 614.536 445.805 628.935 460.202C643.333 474.599 651.426 494.127 651.432 514.491V514.491C651.432 534.859 643.343 554.393 628.943 568.795C614.544 583.197 595.014 591.288 574.65 591.288H479.323C462.805 591.28 446.448 594.529 431.187 600.847C415.925 607.166 402.059 616.432 390.38 628.114C378.701 639.797 369.439 653.667 363.123 668.932C356.807 684.197 353.561 700.558 353.57 717.079V717.079Z" fill="#6D4AFF"/>
<path d="M488.478 677.639C452.699 677.642 418.387 691.859 393.088 717.164C367.788 742.468 353.574 776.788 353.57 812.574V845.26H443.525V722.625C443.525 710.698 448.261 699.26 456.69 690.824C465.12 682.388 476.554 677.645 488.478 677.639V677.639Z" fill="url(#paint0_linear_11891_190633)"/>
<path d="M756.914 845.272V649.993C756.914 570.323 803.432 506.873 896.48 506.873C911.415 506.656 926.318 508.312 940.841 511.804V592.139C930.268 591.436 921.125 591.436 916.874 591.436C867.583 591.436 846.388 613.991 846.388 659.816V845.272H756.914Z" fill="#6D4AFF"/>
<path d="M967.656 679.648C967.656 581.651 1041.67 506.924 1144.58 506.924C1247.5 506.924 1321.5 581.602 1321.5 679.648C1321.5 777.694 1247.49 853.025 1144.58 853.025C1041.68 853.025 967.656 777.596 967.656 679.648ZM1233.41 679.648C1233.41 623.951 1196.04 584.473 1144.6 584.473C1093.15 584.473 1055.78 623.914 1055.78 679.648C1055.78 736.048 1093.14 774.822 1144.6 774.822C1196.06 774.822 1233.41 735.998 1233.41 679.648Z" fill="#6D4AFF"/>
<path d="M1607.66 679.648C1607.66 581.651 1681.67 506.924 1784.58 506.924C1887.5 506.924 1961.5 581.602 1961.5 679.648C1961.5 777.694 1887.49 853.075 1784.58 853.075C1681.68 853.075 1607.66 777.596 1607.66 679.648ZM1873.39 679.648C1873.39 623.951 1836.03 584.473 1784.58 584.473C1733.14 584.473 1695.76 623.914 1695.76 679.648C1695.76 736.048 1733.13 774.822 1784.58 774.822C1836.04 774.822 1873.39 735.998 1873.39 679.648V679.648Z" fill="#6D4AFF"/>
<path d="M2008.02 845.272V657.043C2008.02 569.621 2063.7 506.874 2163.08 506.874C2261.76 506.874 2317.45 569.621 2317.45 657.043V845.272H2228.64V664.093C2228.64 615.458 2206.78 585.138 2163.08 585.138C2119.39 585.138 2097.53 615.458 2097.53 664.093V845.272H2008.02Z" fill="#6D4AFF"/>
<path d="M1580.9 585.126H1484.32V708.5C1484.32 751.502 1499.82 771.247 1544.23 771.247C1548.46 771.247 1559.02 771.247 1572.43 770.545V843.164C1554.1 848.094 1537.92 850.917 1520.26 850.917C1445.55 850.966 1394.83 805.795 1394.83 720.492V585.126H1334.88V513.924H1349.83C1355.74 513.927 1361.6 512.764 1367.06 510.502C1372.52 508.239 1377.49 504.922 1381.67 500.739C1385.85 496.556 1389.16 491.589 1391.42 486.124C1393.68 480.659 1394.84 474.802 1394.83 468.888V401.827H1484.34V513.924H1580.9V585.126Z" fill="#6D4AFF"/>
<path d="M1394.47 1046.71V969.13H1426.32C1433.75 969.13 1439.93 971.29 1444.86 975.61C1449.79 979.93 1452.25 985.92 1452.25 993.58C1452.25 1001.24 1449.75 1007.27 1444.74 1011.67C1439.81 1015.99 1433.67 1018.15 1426.31 1018.15H1409.02V1046.7H1394.46L1394.47 1046.71ZM1409.03 1004.39H1424.05C1428.15 1004.39 1431.41 1003.44 1433.83 1001.55C1436.26 999.65 1437.47 997 1437.47 993.59C1437.47 990.18 1436.26 987.56 1433.83 985.74C1431.48 983.84 1428.26 982.9 1424.16 982.9H1409.03V1004.4V1004.39Z" fill="#6D4AFF"/>
<path d="M1461.66 1015.2C1461.66 1008.45 1463.59 1002.91 1467.46 998.59C1471.4 994.27 1476.98 992.11 1484.18 992.11C1486.76 992.11 1489.15 992.38 1491.35 992.91V1005.88C1490.21 1005.8 1488.92 1005.77 1487.48 1005.77C1483.54 1005.77 1480.65 1006.68 1478.83 1008.5C1477.01 1010.32 1476.1 1013.09 1476.1 1016.8V1046.72H1461.65V1015.21L1461.66 1015.2Z" fill="#6D4AFF"/>
<path d="M1501.57 1046.71V993.25H1515.9V1046.71H1501.57ZM1502.25 982.21C1500.51 980.47 1499.63 978.38 1499.63 975.95C1499.63 973.52 1500.5 971.44 1502.25 969.69C1504.07 967.95 1506.23 967.07 1508.73 967.07C1511.23 967.07 1513.24 967.94 1514.99 969.69C1516.81 971.43 1517.72 973.52 1517.72 975.95C1517.72 978.38 1516.81 980.46 1514.99 982.21C1513.25 983.88 1511.16 984.71 1508.73 984.71C1506.3 984.71 1504.07 983.88 1502.25 982.21Z" fill="#6D4AFF"/>
<path d="M1544.16 1046.71L1523.8 993.25H1538.93L1548.26 1020.55C1549.7 1025.33 1550.54 1028.21 1550.76 1029.2H1550.99C1551.67 1026.62 1552.54 1023.74 1553.61 1020.55L1562.94 993.25H1578.18L1557.82 1046.71H1544.17H1544.16Z" fill="#6D4AFF"/>
<path d="M1606.89 1047.96C1600.22 1047.96 1594.42 1045.5 1589.49 1040.57C1584.56 1035.56 1582.1 1028.7 1582.1 1019.98C1582.1 1011.26 1584.57 1004.43 1589.49 999.5C1594.42 994.57 1600.22 992.11 1606.89 992.11C1615.46 992.11 1621.38 995.29 1624.64 1001.67L1625.89 993.25H1638.18V1046.71H1625.44L1624.53 1038.52C1621.27 1044.81 1615.39 1047.96 1606.9 1047.96H1606.89ZM1596.31 1019.98C1596.31 1024.61 1597.68 1028.32 1600.41 1031.13C1603.14 1033.94 1606.55 1035.34 1610.65 1035.34C1614.37 1035.34 1617.55 1034.01 1620.2 1031.36C1622.93 1028.63 1624.3 1024.84 1624.3 1019.98C1624.3 1015.12 1622.9 1011.68 1620.09 1008.95C1617.36 1006.14 1614.21 1004.74 1610.65 1004.74C1606.55 1004.74 1603.14 1006.14 1600.41 1008.95C1597.68 1011.76 1596.31 1015.43 1596.31 1019.98V1019.98Z" fill="#6D4AFF"/>
<path d="M1677.98 1047.96C1669.87 1047.96 1663.12 1045.31 1657.73 1040C1652.42 1034.69 1649.77 1028.02 1649.77 1019.98C1649.77 1011.94 1652.42 1005.31 1657.73 1000.07C1663.11 994.76 1669.86 992.11 1677.98 992.11C1684.88 992.11 1690.72 994.01 1695.5 997.8C1700.28 1001.52 1703.2 1006.48 1704.26 1012.7H1690.27C1688.15 1007.39 1684.17 1004.74 1678.33 1004.74C1674.16 1004.74 1670.71 1006.18 1667.98 1009.06C1665.33 1011.87 1664 1015.51 1664 1019.98C1664 1024.45 1665.33 1028.13 1667.98 1031.01C1670.71 1033.89 1674.16 1035.33 1678.33 1035.33C1684.09 1035.33 1688.08 1032.64 1690.27 1027.25H1704.26C1703.2 1033.47 1700.28 1038.47 1695.5 1042.27C1690.72 1046.06 1684.88 1047.96 1677.98 1047.96Z" fill="#6D4AFF"/>
<path d="M1734.28 1032.83C1734.66 1030.02 1735.34 1027.03 1736.33 1023.84L1746.45 993.24H1762.15L1732.91 1069.23H1716.87L1726.65 1046.82L1705.83 993.24H1721.87L1731.99 1023.84C1732.9 1026.42 1733.58 1029.41 1734.04 1032.83H1734.27H1734.28Z" fill="#6D4AFF"/>
<path d="M1831.11 1047.96C1822.69 1047.96 1816.85 1044.81 1813.59 1038.52L1812.68 1046.71H1799.6V969.13H1813.93V1000.87C1817.34 995.03 1823.07 992.11 1831.11 992.11C1837.71 992.11 1843.43 994.57 1848.29 999.5C1853.14 1004.43 1855.57 1011.25 1855.57 1019.98C1855.57 1028.71 1853.14 1035.56 1848.29 1040.57C1843.44 1045.5 1837.71 1047.96 1831.11 1047.96ZM1817.8 1008.71C1815.15 1011.36 1813.82 1015.12 1813.82 1019.97C1813.82 1024.82 1815.15 1028.62 1817.8 1031.35C1820.53 1034 1823.72 1035.33 1827.35 1035.33C1831.45 1035.33 1834.78 1033.96 1837.36 1031.23C1840.01 1028.42 1841.34 1024.67 1841.34 1019.97C1841.34 1015.27 1840.01 1011.55 1837.36 1008.82C1834.78 1006.09 1831.44 1004.72 1827.35 1004.72C1823.71 1004.72 1820.52 1006.05 1817.8 1008.7V1008.71Z" fill="#6D4AFF"/>
<path d="M1887.66 1032.83C1888.04 1030.02 1888.72 1027.03 1889.71 1023.84L1899.83 993.24H1915.53L1886.3 1069.23H1870.26L1880.04 1046.82L1859.22 993.24H1875.26L1885.38 1023.84C1886.29 1026.42 1886.97 1029.41 1887.43 1032.83H1887.66V1032.83Z" fill="#6D4AFF"/>
<path d="M1990.98 1046.71L1990.07 1038.52C1986.81 1044.81 1980.97 1047.96 1972.55 1047.96C1965.95 1047.96 1960.23 1045.5 1955.37 1040.57C1950.52 1035.56 1948.09 1028.7 1948.09 1019.98C1948.09 1011.26 1950.52 1004.43 1955.37 999.5C1960.22 994.57 1965.95 992.11 1972.55 992.11C1980.59 992.11 1986.31 995.03 1989.73 1000.87V969.13H2004.06V1046.71H1990.98ZM1962.31 1019.98C1962.31 1024.68 1963.64 1028.44 1966.29 1031.24C1968.94 1033.97 1972.28 1035.34 1976.3 1035.34C1979.94 1035.34 1983.09 1034.01 1985.74 1031.36C1988.47 1028.63 1989.83 1024.84 1989.83 1019.98C1989.83 1015.12 1988.46 1011.37 1985.74 1008.72C1983.09 1006.07 1979.94 1004.74 1976.3 1004.74C1972.28 1004.74 1968.95 1006.14 1966.29 1008.95C1963.64 1011.68 1962.31 1015.36 1962.31 1019.98Z" fill="#6D4AFF"/>
<path d="M2043.97 1047.96C2035.7 1047.96 2028.99 1045.34 2023.84 1040.11C2018.76 1034.8 2016.22 1028.09 2016.22 1019.98C2016.22 1011.87 2018.8 1005.31 2023.96 1000.07C2029.12 994.76 2035.68 992.11 2043.64 992.11C2051.6 992.11 2057.78 994.76 2062.87 1000.07C2067.95 1005.38 2070.49 1012.01 2070.49 1019.98C2070.49 1021.88 2070.41 1023.51 2070.26 1024.87H2029.88C2030.71 1028.43 2032.35 1031.2 2034.77 1033.17C2037.2 1035.07 2040.16 1036.01 2043.64 1036.01C2049.48 1036.01 2053.46 1034.19 2055.58 1030.55H2068.89C2067.3 1036.16 2064.19 1040.48 2059.56 1043.52C2054.93 1046.48 2049.74 1047.96 2043.98 1047.96H2043.97ZM2029.75 1014.86H2056.94C2056.48 1011.75 2055.01 1009.17 2052.5 1007.12C2050.07 1005.07 2047.11 1004.05 2043.63 1004.05C2040.15 1004.05 2037.07 1005.04 2034.64 1007.01C2032.21 1008.98 2030.58 1011.6 2029.75 1014.86Z" fill="#6D4AFF"/>
<path d="M2083.32 990.17C2083.32 983.04 2085.1 977.62 2088.67 973.9C2092.31 970.18 2097.09 968.33 2103 968.33C2105.27 968.33 2107.85 968.63 2110.74 969.24V980.73C2109.07 980.58 2107.97 980.5 2107.44 980.5C2100.99 980.5 2097.77 983.57 2097.77 989.71V993.24H2112.9V1004.73H2097.77V1046.71H2083.32V1004.73H2072.97V993.24H2083.32V990.17V990.17Z" fill="#6D4AFF"/>
<path d="M2141.6 1047.96C2134.93 1047.96 2129.13 1045.5 2124.19 1040.57C2119.26 1035.56 2116.8 1028.7 2116.8 1019.98C2116.8 1011.26 2119.27 1004.43 2124.19 999.5C2129.12 994.57 2134.92 992.11 2141.6 992.11C2150.17 992.11 2156.08 995.29 2159.34 1001.67L2160.59 993.25H2172.88V1046.71H2160.14L2159.23 1038.52C2155.97 1044.81 2150.09 1047.96 2141.6 1047.96V1047.96ZM2131.02 1019.98C2131.02 1024.61 2132.39 1028.32 2135.11 1031.13C2137.84 1033.94 2141.25 1035.34 2145.35 1035.34C2149.07 1035.34 2152.25 1034.01 2154.9 1031.36C2157.63 1028.63 2159 1024.84 2159 1019.98C2159 1015.12 2157.6 1011.68 2154.79 1008.95C2152.06 1006.14 2148.91 1004.74 2145.35 1004.74C2141.25 1004.74 2137.84 1006.14 2135.11 1008.95C2132.38 1011.76 2131.02 1015.43 2131.02 1019.98V1019.98Z" fill="#6D4AFF"/>
<path d="M2212.24 1047.96C2204.5 1047.88 2198.44 1045.61 2194.04 1041.13C2189.72 1036.66 2187.56 1030.82 2187.56 1023.61V993.24H2202.01V1022.59C2202.01 1026.53 2202.88 1029.6 2204.63 1031.8C2206.37 1034 2208.91 1035.14 2212.25 1035.21C2215.82 1035.29 2218.43 1034.22 2220.1 1032.02C2221.84 1029.82 2222.72 1026.67 2222.72 1022.58V993.23H2237.17V1023.72C2237.17 1030.62 2234.82 1036.42 2230.12 1041.12C2225.49 1045.75 2219.54 1048.02 2212.26 1047.95L2212.24 1047.96Z" fill="#6D4AFF"/>
<path d="M2252.84 1046.71V969.13H2267.17V1046.71H2252.84Z" fill="#6D4AFF"/>
<path d="M2307.49 1047.62C2301.35 1047.62 2296.42 1045.8 2292.7 1042.16C2289.06 1038.52 2287.24 1033.33 2287.24 1026.58V1004.74H2277.57V993.25H2287.24V975.16H2301.69V993.25H2317.27V1004.74H2301.69V1024.65C2301.69 1028.21 2302.41 1030.79 2303.85 1032.39C2305.37 1033.98 2307.87 1034.78 2311.36 1034.78C2312.95 1034.78 2314.47 1034.74 2315.91 1034.67V1046.39C2312.8 1047.22 2309.99 1047.64 2307.49 1047.64V1047.62Z" fill="#6D4AFF"/>
</g>
<defs>
<linearGradient id="paint0_linear_11891_190633" x1="421.024" y1="821.017" x2="421.024" y2="632.664" gradientUnits="userSpaceOnUse">
<stop stop-color="#6D4BFD"/>
<stop offset="1" stop-color="#1C0554"/>
</linearGradient>
<clipPath id="clip0_11891_190633">
<rect width="1964.27" height="716.23" fill="white" transform="translate(353 353)"/>
</clipPath>
</defs>
</svg>
