<?xml version="1.0" standalone="no"?>
<!DOCTYPE svg PUBLIC "-//W3C//DTD SVG 20010904//EN"
 "http://www.w3.org/TR/2001/REC-SVG-20010904/DTD/svg10.dtd">
<svg version="1.0" xmlns="http://www.w3.org/2000/svg"
 width="200.000000pt" height="50.000000pt" viewBox="0 0 200.000000 50.000000"
 preserveAspectRatio="xMidYMid meet">
<metadata>
Created by potrace 1.16, written by Peter Selinger 2001-2019
</metadata>
<g transform="translate(0.000000,50.000000) scale(0.100000,-0.100000)"
fill="#000000" stroke="none">
<path d="M92 379 c-23 -33 -40 -65 -36 -71 4 -6 3 -8 -3 -5 -14 9 -46 -41 -39
-59 3 -9 11 -12 17 -8 8 4 9 3 5 -4 -8 -13 43 -94 55 -87 4 3 11 0 15 -6 4 -8
3 -9 -4 -5 -21 12 -12 -8 17 -43 l28 -34 22 32 c12 17 19 36 15 42 -4 7 -3 9
3 6 11 -7 97 108 91 121 -11 27 -125 181 -133 181 -5 0 -29 -27 -53 -60z"/>
<path d="M217 427 c25 -40 98 -137 103 -137 9 0 100 128 100 140 0 6 -42 10
-105 10 -84 0 -104 -3 -98 -13z"/>
<path d="M573 385 c-44 -19 -53 -42 -53 -135 0 -93 14 -123 65 -140 54 -18
125 22 125 69 0 18 -35 12 -53 -9 -21 -25 -59 -26 -80 -2 -25 27 -24 143 1
165 25 23 59 21 79 -3 18 -21 53 -27 53 -9 0 24 -24 52 -55 65 -41 17 -42 17
-82 -1z"/>
<path d="M730 385 c0 -3 18 -41 40 -85 32 -64 40 -90 40 -135 0 -48 2 -55 20
-55 18 0 20 7 20 60 0 51 7 74 40 140 40 79 40 80 17 80 -19 0 -28 -11 -46
-55 -13 -30 -26 -55 -30 -55 -4 0 -19 25 -34 55 -19 39 -32 55 -47 55 -11 0
-20 -2 -20 -5z"/>
<path d="M954 368 c3 -13 18 -76 32 -140 23 -99 30 -118 46 -118 21 0 19 -4
49 108 12 46 24 81 26 78 3 -2 15 -44 27 -93 18 -71 26 -89 42 -91 17 -2 23
12 52 130 18 73 32 136 32 141 0 4 -9 7 -19 7 -22 0 -22 -2 -47 -115 -9 -44
-20 -73 -22 -65 -3 8 -15 51 -27 95 -15 55 -27 81 -39 83 -18 4 -17 7 -47
-108 l-23 -85 -18 75 c-9 41 -20 85 -23 98 -3 14 -13 22 -26 22 -17 0 -20 -4
-15 -22z"/>
<path d="M1327 257 c-26 -73 -47 -136 -47 -140 0 -4 9 -7 19 -7 12 0 23 11 30
30 9 28 13 30 65 30 51 0 55 -2 65 -30 7 -21 17 -30 31 -30 25 0 27 -11 -34
156 -60 166 -67 165 -129 -9z m102 -34 c1 -8 -12 -13 -34 -13 -40 0 -42 6 -18
75 l16 50 18 -50 c10 -28 18 -56 18 -62z"/>
<path d="M1560 250 c0 -133 1 -140 20 -140 18 0 20 7 20 60 0 59 0 60 28 60
25 0 32 -8 57 -60 23 -48 33 -60 52 -60 l23 0 -30 61 -31 60 26 20 c19 16 25
30 25 60 0 62 -24 79 -115 79 l-75 0 0 -140z m131 100 c21 -12 25 -50 7 -68
-7 -7 -31 -12 -55 -12 l-43 0 0 38 c0 21 3 42 7 45 10 11 62 8 84 -3z"/>
<path d="M1820 250 l0 -140 85 0 c78 0 85 2 85 20 0 18 -7 20 -65 20 l-65 0 0
40 0 40 55 0 c48 0 55 2 55 20 0 18 -7 20 -55 20 l-55 0 0 40 0 40 65 0 c58 0
65 2 65 20 0 18 -7 20 -85 20 l-85 0 0 -140z"/>
</g>
</svg>
