<?xml version="1.0" standalone="no"?>
<!DOCTYPE svg PUBLIC "-//W3C//DTD SVG 20010904//EN"
 "http://www.w3.org/TR/2001/REC-SVG-20010904/DTD/svg10.dtd">
<svg version="1.0" xmlns="http://www.w3.org/2000/svg"
 width="360.000000pt" height="271.000000pt" viewBox="0 0 360.000000 271.000000"
 preserveAspectRatio="xMidYMid meet">
<metadata>
Created by potrace 1.16, written by Peter Selinger 2001-2019
</metadata>
<g transform="translate(0.000000,271.000000) scale(0.100000,-0.100000)"
fill="#000000" stroke="none">
<path d="M1627 2703 c-19 -19 4 -23 119 -23 122 0 126 -1 121 -20 -3 -11 -74
-126 -157 -255 l-152 -235 -50 0 c-36 0 -49 4 -45 13 2 6 50 84 106 172 l102
160 -198 3 c-200 2 -223 1 -223 -18 0 -6 47 -10 130 -10 90 0 130 -3 130 -11
0 -22 -379 -603 -487 -746 -53 -70 -99 -113 -122 -113 -6 0 -11 -5 -11 -10 0
-16 67 -1 122 26 97 49 234 204 372 422 l59 92 48 0 c27 0 49 -3 49 -6 0 -13
-368 -559 -417 -619 -26 -33 -63 -67 -80 -75 -44 -20 -41 -34 5 -25 64 11 123
46 199 118 92 88 147 161 303 406 l125 196 58 3 c31 2 57 -1 57 -5 0 -5 -29
-56 -64 -113 -175 -285 -192 -306 -258 -319 -17 -4 -33 -12 -36 -19 -3 -10 39
-12 189 -10 143 2 193 6 197 16 2 8 -10 12 -45 12 -58 0 -93 9 -93 23 0 23
258 433 386 614 99 139 166 221 212 257 l37 28 -44 -6 c-66 -10 -155 -62 -211
-123 -56 -62 -150 -186 -207 -273 l-38 -60 -57 0 c-32 0 -58 3 -58 6 0 17 306
483 333 507 l31 27 -215 0 c-119 0 -219 -3 -222 -7z"/>
<path d="M804 1411 c-44 -20 -110 -90 -176 -188 l-43 -63 -77 0 c-43 0 -78 2
-78 5 0 3 22 41 50 85 28 44 50 82 50 85 0 3 -48 4 -107 3 -60 -1 -83 -3 -53
-5 78 -5 83 -8 69 -35 -37 -73 -264 -401 -291 -422 l-33 -26 34 10 c66 19 123
73 208 198 l57 82 78 0 78 0 -51 -82 c-57 -94 -95 -138 -118 -138 -9 0 -23 -5
-31 -10 -10 -7 21 -9 95 -9 86 1 103 3 78 10 -18 5 -33 12 -33 14 0 9 146 233
214 330 39 55 88 117 109 137 41 42 33 47 -29 19z"/>
<path d="M2190 1331 c0 -5 26 -7 59 -5 37 4 61 1 66 -5 11 -20 -153 -257 -221
-319 -157 -145 -194 -112 -64 57 38 49 70 93 70 96 0 3 -18 5 -39 5 -27 0 -41
-5 -45 -17 -6 -14 -8 -14 -22 5 -18 26 -67 29 -119 8 -49 -21 -125 -95 -147
-143 -12 -27 -34 -52 -65 -72 -41 -28 -83 -40 -83 -26 0 36 141 235 239 339
53 56 55 59 26 52 -48 -12 -91 -43 -147 -107 -47 -54 -53 -58 -68 -44 -9 8
-32 15 -51 15 -61 -1 -115 -35 -206 -130 -89 -93 -145 -136 -162 -125 -15 9
-2 34 47 95 59 73 80 116 66 138 -17 27 -74 27 -114 0 -58 -40 -66 -42 -41
-15 l24 27 -45 0 c-28 0 -50 -6 -58 -15 -15 -18 -145 -115 -154 -115 -4 0 -2
9 4 19 31 59 -7 121 -76 121 -139 0 -290 -184 -214 -260 45 -45 149 -18 240
62 50 44 180 140 180 133 0 -3 -34 -50 -75 -106 -41 -56 -73 -104 -71 -107 3
-2 20 -2 38 2 26 5 46 23 93 83 61 77 165 173 189 173 36 0 27 -23 -51 -117
-52 -65 -62 -97 -38 -123 33 -36 89 -18 162 53 l42 40 -5 -35 c-9 -51 23 -83
74 -74 20 3 48 14 63 25 l26 20 12 -26 c11 -23 16 -25 57 -20 30 3 58 15 82
34 l36 30 16 -31 c19 -40 62 -45 119 -17 40 21 40 21 51 1 23 -44 111 -13 199
70 18 17 31 24 27 15 -13 -35 -191 -287 -218 -310 -45 -38 -3 -33 56 7 61 40
120 119 291 388 75 118 146 225 158 238 l20 22 -116 0 c-65 0 -117 -4 -117 -9z
m-1306 -208 c-4 -76 -104 -212 -159 -216 -40 -3 -43 19 -10 90 33 72 68 119
109 144 43 26 61 21 60 -18z m726 22 c39 -46 -109 -243 -166 -221 -47 18 23
170 101 218 37 22 49 23 65 3z m368 -12 c8 -56 -113 -213 -164 -213 -26 0 -26
2 -21 46 12 109 173 254 185 167z"/>
<path d="M2799 1252 c-24 -16 -56 -43 -71 -60 -19 -23 -35 -32 -57 -32 -16 0
-33 -4 -36 -10 -4 -6 5 -10 20 -10 24 0 25 -2 14 -22 -20 -38 -126 -136 -182
-168 -82 -47 -153 -34 -145 28 3 21 14 28 85 51 46 15 95 36 110 47 31 23 41
58 23 80 -17 20 -87 17 -136 -5 -50 -23 -120 -84 -140 -122 -20 -40 -18 -95 6
-119 44 -44 169 -14 255 61 29 25 37 29 31 14 -26 -61 -12 -95 38 -95 26 0
106 39 106 52 0 5 -15 0 -34 -11 -38 -24 -66 -27 -66 -8 0 16 32 67 92 150 50
67 50 67 98 67 27 0 52 5 55 10 4 6 -12 10 -39 10 -25 0 -46 4 -46 8 0 4 22
31 48 60 55 59 43 69 -29 24z m-289 -111 c0 -36 -109 -120 -141 -109 -15 5 38
75 79 103 44 30 62 32 62 6z"/>
</g>
</svg>
