<?xml version="1.0" standalone="no"?>
<!DOCTYPE svg PUBLIC "-//W3C//DTD SVG 20010904//EN"
 "http://www.w3.org/TR/2001/REC-SVG-20010904/DTD/svg10.dtd">
<svg version="1.0" xmlns="http://www.w3.org/2000/svg"
 width="1024.000000pt" height="727.000000pt" viewBox="0 0 1024.000000 727.000000"
 preserveAspectRatio="xMidYMid meet">
<metadata>
Created by potrace 1.16, written by Peter Selinger 2001-2019
</metadata>
<g transform="translate(0.000000,727.000000) scale(0.100000,-0.100000)"
fill="#000000" stroke="none">
<path d="M520 5185 l0 -115 815 0 816 0 -3 113 -3 112 -812 3 -813 2 0 -115z"/>
<path d="M2380 5183 l0 -118 1159 0 c638 0 1157 3 1155 7 -12 19 -139 101
-205 133 -96 45 -200 71 -340 84 -70 7 -435 11 -941 11 l-828 0 0 -117z"/>
<path d="M5160 5185 l0 -115 695 -2 c382 -2 695 0 695 3 0 6 -56 163 -75 212
-7 16 -48 17 -661 17 l-654 0 0 -115z"/>
<path d="M7566 5291 c-7 -11 -76 -208 -76 -215 0 -3 311 -7 690 -8 l690 -3 0
118 0 117 -649 0 c-378 0 -652 -4 -655 -9z"/>
<path d="M520 4735 l0 -115 813 2 812 3 2 113 2 112 -815 0 -814 0 0 -115z"/>
<path d="M2380 4735 l0 -115 1289 0 1290 0 -19 68 c-10 37 -28 89 -39 115
l-20 47 -1251 0 -1250 0 0 -115z"/>
<path d="M5160 4735 l0 -115 775 0 c426 0 775 2 775 4 0 3 -61 172 -75 209 -7
16 -51 17 -741 17 l-734 0 0 -115z"/>
<path d="M7406 4841 c-8 -12 -76 -204 -76 -213 0 -5 347 -8 770 -8 l770 0 0
115 0 115 -729 0 c-431 0 -732 -4 -735 -9z"/>
<path d="M990 4295 l0 -115 345 0 345 0 0 115 0 115 -345 0 -345 0 0 -115z"/>
<path d="M2840 4295 l0 -115 350 0 350 0 0 115 0 115 -350 0 -350 0 0 -115z"/>
<path d="M4239 4406 c-2 -2 -3 -54 -1 -115 l3 -111 349 0 350 0 5 23 c20 89
25 118 25 160 l0 47 -363 0 c-200 0 -366 -2 -368 -4z"/>
<path d="M5630 4295 l0 -115 620 0 620 0 -19 48 c-10 26 -28 77 -40 115 l-23
67 -579 0 -579 0 0 -115z"/>
<path d="M7217 4313 c-19 -54 -38 -106 -42 -115 -7 -17 26 -18 614 -18 l621 0
0 115 0 115 -579 0 -579 0 -35 -97z"/>
<path d="M990 3848 l0 -117 345 0 345 1 0 117 0 116 -345 0 -345 0 0 -117z"/>
<path d="M3832 3962 l-993 -2 3 -113 3 -112 884 -2 c731 -2 888 0 910 11 35
19 203 211 190 219 -2 1 -451 1 -997 -1z"/>
<path d="M5630 3848 l0 -117 345 0 344 1 3 91 3 92 31 -85 30 -85 60 -7 c70
-7 1149 -9 1181 -2 16 5 28 24 49 82 15 43 31 81 36 87 4 5 8 -32 8 -83 l0
-92 343 3 342 2 0 113 0 112 -654 0 c-517 0 -656 -2 -663 -12 -4 -7 -20 -49
-34 -93 -15 -44 -29 -84 -32 -89 -3 -5 -21 36 -41 93 l-36 102 -658 2 -657 2
0 -117z"/>
<path d="M990 3405 l0 -115 345 0 345 0 0 115 0 115 -345 0 -345 0 0 -115z"/>
<path d="M2840 3405 l0 -115 995 0 c547 0 995 3 995 6 0 10 -68 92 -134 162
l-59 62 -899 0 -898 0 0 -115z"/>
<path d="M5630 3405 l0 -115 345 0 345 0 0 115 0 115 -345 0 -345 0 0 -115z"/>
<path d="M6470 3513 c0 -5 16 -56 36 -115 l37 -108 476 0 477 0 33 103 c19 56
36 108 38 115 4 9 -109 12 -546 12 -303 0 -551 -3 -551 -7z"/>
<path d="M7720 3405 l0 -115 345 0 345 0 0 115 0 115 -345 0 -345 0 0 -115z"/>
<path d="M990 2965 l0 -115 345 0 345 0 0 115 0 115 -345 0 -345 0 0 -115z"/>
<path d="M2840 2965 l0 -115 350 0 350 0 0 115 0 115 -350 0 -350 0 0 -115z"/>
<path d="M4240 3078 c-1 -2 -2 -54 -3 -116 l-2 -112 373 0 c291 0 372 3 372
13 0 22 -21 141 -31 180 l-10 37 -349 0 c-193 0 -350 -1 -350 -2z"/>
<path d="M5630 2965 l0 -115 345 0 345 0 0 115 0 115 -345 0 -345 0 0 -115z"/>
<path d="M6622 3068 c3 -7 20 -59 39 -115 l34 -103 321 0 c297 0 322 1 329 18
4 9 20 53 35 97 15 44 31 88 35 98 7 16 -16 17 -395 17 -317 0 -401 -3 -398
-12z"/>
<path d="M7720 2965 l0 -115 345 0 345 0 0 115 0 115 -345 0 -345 0 0 -115z"/>
<path d="M522 2518 l3 -113 810 0 810 0 2 113 1 112 -814 0 -815 0 3 -112z"/>
<path d="M2380 2515 l0 -115 1249 0 1250 0 19 53 c22 57 52 156 52 169 0 4
-578 8 -1285 8 l-1285 0 0 -115z"/>
<path d="M5162 2518 l3 -113 578 -3 577 -2 0 115 0 115 -581 0 -580 0 3 -112z"/>
<path d="M6780 2623 c0 -5 17 -57 37 -116 l38 -108 165 3 165 3 37 105 c20 58
37 108 37 113 1 4 -107 7 -239 7 -132 0 -240 -3 -240 -7z"/>
<path d="M7720 2515 l0 -115 575 0 575 0 0 115 0 115 -575 0 -575 0 0 -115z"/>
<path d="M9335 2477 c-104 -49 -159 -135 -159 -247 -1 -200 210 -328 390 -238
157 78 193 299 71 426 -49 52 -102 75 -182 79 -59 3 -78 0 -120 -20z m213 -36
c107 -54 153 -197 101 -311 -40 -90 -106 -132 -204 -133 -135 -1 -226 95 -227
239 -1 175 175 284 330 205z"/>
<path d="M9340 2230 c0 -143 1 -150 20 -150 18 0 20 7 20 70 l0 70 34 0 c32 0
38 -5 78 -70 32 -52 49 -70 65 -70 20 0 19 5 -23 67 l-44 68 31 10 c63 22 81
96 33 134 -23 18 -41 21 -120 21 l-94 0 0 -150z m178 114 c28 -20 30 -69 3
-84 -11 -5 -47 -10 -80 -10 l-61 0 0 55 0 55 58 0 c36 0 66 -6 80 -16z"/>
<path d="M520 2075 l0 -115 815 0 815 0 0 115 0 115 -815 0 -815 0 0 -115z"/>
<path d="M2380 2075 l0 -116 918 4 c994 4 971 3 1123 60 91 35 134 57 214 116
l70 51 -1163 0 -1162 0 0 -115z"/>
<path d="M5160 2075 l0 -115 580 0 580 0 0 115 0 115 -580 0 -580 0 0 -115z"/>
<path d="M6934 2173 c35 -107 76 -208 86 -208 9 0 84 186 90 223 0 1 -41 2
-91 2 -82 0 -90 -2 -85 -17z"/>
<path d="M7720 2075 l0 -115 575 0 575 0 0 115 0 115 -575 0 -575 0 0 -115z"/>
</g>
</svg>
