<?xml version="1.0" standalone="no"?>
<!DOCTYPE svg PUBLIC "-//W3C//DTD SVG 20010904//EN"
 "http://www.w3.org/TR/2001/REC-SVG-20010904/DTD/svg10.dtd">
<svg version="1.0" xmlns="http://www.w3.org/2000/svg"
 width="256.000000pt" height="256.000000pt" viewBox="0 0 256.000000 256.000000"
 preserveAspectRatio="xMidYMid meet">
<metadata>
Created by potrace 1.16, written by Peter Selinger 2001-2019
</metadata>
<g transform="translate(0.000000,256.000000) scale(0.100000,-0.100000)"
fill="#000000" stroke="none">
<path d="M0 1280 l0 -1280 1280 0 1280 0 0 1280 0 1280 -1280 0 -1280 0 0
-1280z m2233 517 c36 -15 37 -18 37 -66 0 -47 -2 -51 -24 -51 -17 0 -27 9 -36
31 -14 34 -44 49 -96 49 -32 0 -74 -28 -74 -49 0 -24 41 -50 103 -65 80 -19
112 -38 133 -77 54 -105 -48 -202 -195 -184 -31 4 -73 14 -93 22 -38 15 -38
15 -38 74 0 56 1 59 25 59 18 0 26 -7 31 -24 20 -80 171 -105 190 -31 10 39
-16 59 -100 79 -84 20 -117 41 -136 85 -25 62 12 133 85 160 39 14 140 8 188
-12z m-1823 -17 c0 -25 -4 -30 -25 -30 -14 0 -25 -3 -25 -6 0 -18 56 -204 61
-204 3 0 16 37 28 83 12 45 29 106 37 135 l15 52 44 0 43 0 38 -140 c21 -76
41 -136 45 -132 3 4 16 45 28 92 12 47 24 93 27 103 4 13 -1 17 -20 17 -22 0
-26 4 -26 30 l0 30 245 0 245 0 0 -70 c0 -62 -2 -70 -19 -70 -12 0 -26 14 -38
38 -18 36 -19 37 -80 40 l-63 3 0 -61 0 -60 61 0 c60 0 60 0 57 -27 -3 -27 -6
-28 -60 -31 l-58 -3 0 -59 0 -60 59 0 c66 0 88 14 98 61 4 22 11 29 29 29 23
0 24 -3 24 -75 l0 -75 -175 0 -175 0 0 30 c0 23 4 30 20 30 19 0 20 7 20 151
l0 150 -37 -3 -36 -3 -47 -165 c-25 -91 -49 -171 -53 -177 -12 -20 -75 -16
-85 5 -5 9 -24 72 -42 140 -18 67 -36 119 -40 115 -4 -4 -17 -44 -29 -88 -12
-44 -29 -104 -38 -133 l-15 -53 -41 3 -42 3 -50 175 c-45 156 -53 175 -74 178
-24 4 -36 24 -27 47 4 12 25 15 101 15 l95 0 0 -30z m1000 0 c0 -25 -4 -30
-25 -30 l-25 0 0 -150 0 -150 46 0 c60 0 82 13 90 55 5 28 11 35 30 35 23 0
24 -3 24 -75 l0 -75 -165 0 -165 0 0 30 c0 25 4 30 25 30 l25 0 0 150 0 150
-25 0 c-21 0 -25 5 -25 30 l0 30 95 0 95 0 0 -30z m370 0 c0 -25 -4 -30 -25
-30 l-25 0 0 -150 0 -150 48 0 c54 0 76 16 87 63 5 20 13 27 32 27 23 0 24 -2
21 -72 l-3 -73 -165 0 -165 0 -3 28 c-3 23 0 27 22 27 l26 0 0 150 0 150 -25
0 c-20 0 -25 5 -25 23 0 13 3 27 7 30 3 4 48 7 100 7 l93 0 0 -30z m-7 -600
c24 -12 27 -18 27 -67 0 -50 -1 -53 -25 -53 -14 0 -25 6 -25 14 0 7 -11 25
-25 40 -34 36 -114 38 -150 2 -47 -47 -57 -164 -20 -235 23 -45 49 -55 133
-52 32 1 32 2 32 50 0 49 -1 50 -32 53 -29 3 -33 7 -36 36 l-3 32 80 0 81 0 0
-96 0 -95 -37 -16 c-63 -26 -172 -29 -225 -5 -155 68 -158 314 -6 391 36 19
55 22 123 18 44 -2 92 -10 108 -17z m418 -3 c24 -13 57 -43 74 -66 25 -36 30
-54 33 -114 4 -90 -22 -147 -86 -192 -36 -25 -55 -30 -115 -33 -61 -3 -79 0
-117 21 -25 13 -58 43 -75 66 -28 39 -30 50 -30 126 0 76 2 87 30 126 61 87
189 117 286 66z m-1553 -54 c-3 -60 -5 -68 -24 -71 -16 -2 -24 6 -36 38 l-16
40 -71 0 -71 0 0 -60 0 -59 63 -3 c59 -3 62 -4 62 -28 0 -24 -3 -25 -62 -28
l-63 -3 0 -59 c0 -60 0 -60 30 -60 25 0 30 -4 30 -25 l0 -25 -100 0 -100 0 0
25 c0 20 5 25 25 25 l25 0 0 150 0 150 -25 0 c-21 0 -25 5 -25 30 l0 30 180 0
181 0 -3 -67z m273 -113 l73 -180 38 0 38 0 0 150 0 150 -25 0 c-21 0 -25 5
-25 30 l0 30 135 0 c143 0 184 -9 219 -48 27 -31 25 -96 -4 -127 -13 -14 -31
-27 -40 -30 -16 -5 -14 -9 11 -35 19 -19 29 -39 29 -58 0 -43 9 -62 30 -62 22
0 34 -28 19 -46 -14 -17 -45 -18 -87 -3 -31 11 -45 35 -56 98 -9 50 -32 71
-78 71 l-38 0 0 -60 0 -60 30 0 c25 0 30 -4 30 -25 l0 -25 -190 0 -190 0 0 25
c0 20 5 25 25 25 29 0 28 -2 14 39 l-11 31 -74 0 c-71 0 -75 -1 -84 -26 -14
-36 -13 -44 10 -44 15 0 20 -7 20 -25 0 -25 -1 -25 -80 -25 -78 0 -80 1 -80
24 0 18 6 26 22 28 19 2 33 31 93 180 l70 178 41 0 42 0 73 -180z"/>
<path d="M2021 1124 c-32 -23 -51 -74 -51 -139 0 -102 39 -155 115 -155 76 0
115 53 115 155 0 102 -39 155 -115 155 -22 0 -51 -7 -64 -16z"/>
<path d="M1150 1070 l0 -60 48 0 c60 0 92 21 92 60 0 44 -23 60 -86 60 l-54 0
0 -60z"/>
<path d="M774 1074 c-4 -10 -15 -40 -25 -66 l-19 -48 50 0 c28 0 50 3 50 8 0
9 -40 115 -46 121 -2 2 -7 -5 -10 -15z"/>
</g>
</svg>
